<region>
sample=01C2.wav
lokey=36
hikey=36
lorand=0
hirand=0.5
pitch_keycenter=36
lovel=0
hivel=127
volume=1

<region>
sample=02D2.wav
lokey=37
hikey=39
lorand=0
hirand=0.5
pitch_keycenter=38
lovel=0
hivel=127
volume=1

<region>
sample=03E2.wav
lokey=40
hikey=43
lorand=0
hirand=0.5
pitch_keycenter=40
lovel=0
hivel=127
volume=1

<region>
sample=04A2.wav
lokey=44
hikey=50
lorand=0
hirand=0.5
pitch_keycenter=45
lovel=0
hivel=127
volume=1

<region>
sample=07E3.wav
lokey=51
hikey=57
lorand=0
hirand=0.5
pitch_keycenter=52
lovel=0
hivel=127
volume=1

<region>
sample=09B3.wav
lokey=58
hikey=72
lorand=0
hirand=0.3
pitch_keycenter=59
lovel=0
hivel=127
volume=1













<region>
sample=01C2.wav
offset=102583
lokey=36
hikey=36
lorand=0.5
hirand=1
pitch_keycenter=36
lovel=0
hivel=127
volume=1

<region>
sample=02D2.wav
offset=91523
lokey=37
hikey=39
lorand=0.5
hirand=1
pitch_keycenter=38
lovel=0
hivel=127
volume=1

<region>
sample=03E2.wav
offset=85640
lokey=40
hikey=43
lorand=0.5
hirand=1
pitch_keycenter=40
lovel=0
hivel=127
volume=1

<region>
sample=04A2.wav
offset=77109
lokey=44
hikey=50
lorand=0.5
hirand=1
pitch_keycenter=45
lovel=0
hivel=127
volume=1

<region>
sample=07E3.wav
offset=75259
lokey=51
hikey=57
lorand=0.5
hirand=1
pitch_keycenter=52
lovel=0
hivel=127
volume=1

<region>
sample=09B3.wav
offset=47286
lokey=58
hikey=72
lorand=0.3
hirand=1
pitch_keycenter=59
lovel=0
hivel=127
volume=1